<svg width="1440" height="1024" viewBox="0 0 1440 1024" fill="none" xmlns="http://www.w3.org/2000/svg">
<g id="Cooking">
<rect width="1440" height="1024" fill="white"/>
<g id="Down">
<path id="Path" d="M284.656 910.138C284.656 910.138 299.814 841.927 340.235 853.296C380.656 864.665 361.708 906.348 403.392 874.769C445.076 843.19 464.024 821.717 488.024 852.033C512.024 882.349 519.6 855.822 557.5 877.3C595.4 898.778 656.026 911.4 656.026 911.4L284.656 910.138Z" fill="#DCDCF1"/>
<path id="Path_2" d="M714.129 912.664C714.129 912.664 709.076 848.243 738.129 846.98C767.182 845.717 769.707 877.3 769.707 877.3C769.707 877.3 798.76 863.4 803.813 878.563C808.866 893.726 803.813 879.826 840.444 892.458C877.075 905.09 923.812 915.194 923.812 915.194L714.129 912.664Z" fill="#DCDCF1"/>
<rect id="Rectangle" x="231.729" y="911.616" width="924.63" height="5.053" fill="#4F216C"/>
</g>
<g id="Background" opacity="0.53">
<g id="Clipped">
<mask id="mask0" mask-type="alpha" maskUnits="userSpaceOnUse" x="369" y="255" width="769" height="560">
<path id="Path_3" fill-rule="evenodd" clip-rule="evenodd" d="M370.448 286.832L465.908 791.854C468.59 806.041 482.441 815.712 497.376 813.824L1078.74 740.337C1091.8 738.687 1101.93 728.609 1103.15 716.056L1137.18 365.326C1138.59 350.741 1127.6 337.734 1112.41 336.006L401.549 255.2C382.708 253.059 367.07 268.963 370.448 286.832Z" fill="white"/>
</mask>
<g mask="url(#mask0)">
<g id="Group">
<path id="Path_4" d="M370.448 286.832L465.908 791.854C468.59 806.041 482.441 815.712 497.376 813.824L1078.74 740.337C1091.8 738.687 1101.93 728.609 1103.15 716.056L1137.18 365.326C1138.59 350.741 1127.6 337.734 1112.41 336.006L401.549 255.2C382.708 253.059 367.07 268.963 370.448 286.832Z" fill="#E1E9F7"/>
<rect id="Rectangle_2" x="486.792" y="200.197" width="85.129" height="704.841" rx="12" stroke="white" stroke-width="2"/>
<rect id="Rectangle_3" x="661.01" y="185.039" width="85.129" height="704.841" rx="12" stroke="white" stroke-width="2"/>
<rect id="Rectangle_4" x="843.147" y="188.829" width="85.129" height="704.841" rx="12" stroke="white" stroke-width="2"/>
<rect id="Rectangle_5" x="1015.39" y="192.618" width="85.129" height="704.841" rx="12" stroke="white" stroke-width="2"/>
</g>
</g>
</g>
</g>
<g id="Human">
<path id="Path_5" d="M584.157 352.091H597.819C612.239 352.091 623.929 363.78 623.931 378.2V459.456C623.931 466.083 618.558 471.456 611.931 471.456H570.044C563.417 471.456 558.044 466.083 558.044 459.456V378.2C558.046 363.78 569.737 352.091 584.157 352.091Z" fill="#4F216C"/>
<path id="Path_6" d="M502.32 877.842L497.208 901.399L509.187 903.453L517.611 883.226L502.32 877.842Z" fill="#FCBB9D"/>
<path id="Path_7" d="M492.544 910.223L496.401 899.956L508.451 902.022C512.645 902.741 516.142 906.033 517.882 910.898C518.46 912.514 517.302 914.469 515.909 914.23L492.544 910.223Z" fill="#5F2882"/>
<path id="Path_8" d="M695.254 518.585C672.074 518.635 649.474 506.475 630.734 492.985C620.104 485.335 610.714 477.255 603.174 470.735C595.724 464.295 592.534 454.305 597.294 445.685C599.934 440.903 604.487 437.473 609.812 436.255C615.137 435.036 620.728 436.146 625.184 439.305C633.944 445.525 643.604 453.115 653.304 460.285C669.304 472.125 685.404 482.835 697.714 484.405C736.484 489.345 787.234 467.155 789.414 474.395C792.814 485.675 726.654 518.515 695.254 518.585Z" fill="#5F2882"/>
<path id="Path_9" d="M653.3 460.285L630.73 492.985C620.1 485.335 610.71 477.255 603.17 470.735C595.72 464.295 592.53 454.305 597.29 445.685C599.929 440.903 604.482 437.473 609.807 436.255C615.132 435.036 620.723 436.146 625.18 439.305C633.944 445.525 643.6 453.115 653.3 460.285Z" fill="#EA7E7B"/>
<path id="Path_10" d="M642.589 881.386L639.323 905.889H628.599L625.003 881.386H642.589Z" fill="#FCBB9D"/>
<path id="Path_11" d="M769.847 477.841C773.53 473.246 778.785 470.177 784.598 469.228C794.134 467.815 803.649 476.677 777.235 487.246C750.821 497.815 769.847 477.841 769.847 477.841Z" fill="#FCBB9D"/>
<path id="Path_12" d="M662.025 592.556C662.025 592.556 659.579 697.29 657.906 739.556C656.262 781.088 642.046 886.556 642.046 886.556H625.624C625.624 886.556 612 758.314 609.686 729.479C607.281 699.479 587.986 592.556 587.986 592.556H662.025Z" fill="#856EEA"/>
<path id="Path_13" d="M597.783 585.378C597.783 585.378 588.893 703.06 577.977 743.93C567.061 784.8 516.583 885.283 516.583 885.283L501.233 882.651C501.233 882.651 529.589 758.083 531.353 731.185C533.323 701.15 522.068 587.924 522.068 587.924L597.783 585.378Z" fill="#6D68DF"/>
<path id="Path_14" d="M521 592.556H662.025C657.053 545.814 653.537 499.773 641.625 461.881C635.913 443.812 619.14 431.537 600.19 431.558H571.7C550.797 431.584 532.863 446.462 528.978 467C521.356 506.874 521.964 548.791 521 592.556Z" fill="#EA7E7B"/>
<path id="Oval" d="M620.461 504.823C622.088 504.823 623.408 503.504 623.408 501.876C623.408 500.248 622.088 498.929 620.461 498.929C618.833 498.929 617.514 500.248 617.514 501.876C617.514 503.504 618.833 504.823 620.461 504.823Z" fill="white"/>
<path id="Path_15" d="M605.992 523.149C611.983 540.337 516.883 566.884 507.047 553.142C495.372 536.83 500.731 497.579 511.382 478.349C517.59 467.468 524.34 456.905 531.605 446.7C537.205 438.612 546.798 434.364 555.875 438.176C560.913 440.288 564.811 444.446 566.593 449.61C568.375 454.773 567.871 460.451 565.208 465.22C560.46 473.72 554.908 484.348 549.117 494.779C543.685 504.568 537.297 521.428 537.865 524.9C538.739 530.243 603.5 516.01 605.992 523.149Z" fill="#5F2882"/>
<path id="Path_16" d="M598.984 522.933C602.738 518.395 608.039 515.407 613.865 514.547C623.422 513.281 632.799 522.289 606.226 532.447C579.653 542.605 598.984 522.933 598.984 522.933Z" fill="#FCBB9D"/>
<path id="Path_17" d="M599.234 400.285V440.5C599.234 446.534 594.343 451.425 588.309 451.425C582.275 451.425 577.384 446.534 577.384 440.5V400.29L599.234 400.285Z" fill="#FCBB9D"/>
<path id="Path_18" d="M625 915.208L627.067 904.436H639.3C643.554 904.436 647.558 907.09 650.095 911.59C650.937 913.09 650.127 915.208 648.714 915.208H625Z" fill="#5F2882"/>
<path id="Path_19" d="M549.117 494.775L511.382 478.349C517.59 467.468 524.339 456.905 531.605 446.7C537.205 438.612 546.798 434.364 555.875 438.176C560.912 440.288 564.811 444.446 566.593 449.61C568.374 454.773 567.871 460.451 565.208 465.22C560.46 473.714 554.687 484.226 549.117 494.775Z" fill="#EA7E7B"/>
<path id="Path_20" d="M610.961 592.556C610.961 592.556 631.561 733.707 631.561 886.564" stroke="white" stroke-linecap="round" stroke-linejoin="round" stroke-dasharray="7"/>
<path id="Path_21" d="M599.234 402.525V427.425C599.234 427.425 584.144 430.825 577.384 416.145V400.285H589.7L599.234 402.525Z" fill="#B98A80"/>
<path id="Path_22" d="M599.34 417.605H594.185C584.906 417.602 577.385 410.079 577.385 400.8V364.612H616.252L616.152 379.66V400.8C616.152 405.258 614.38 409.534 611.227 412.685C608.074 415.837 603.798 417.607 599.34 417.605Z" fill="#FCBB9D"/>
<path id="Oval_2" d="M576.899 406.676C580.429 406.676 583.291 403.814 583.291 400.284C583.291 396.754 580.429 393.892 576.899 393.892C573.369 393.892 570.507 396.754 570.507 400.284C570.507 403.814 573.369 406.676 576.899 406.676Z" fill="#FCBB9D"/>
<path id="Path_23" d="M616.247 364.617C616.247 364.617 601.089 385.459 589.51 389.038C577.931 392.617 574.353 391.564 574.353 391.564V359.775L616.247 364.617Z" fill="#4F216C"/>
<path id="Path_24" d="M596.3 397.828L609.089 397.986C609.089 397.986 611.457 408.302 602.194 407.828C594.779 407.449 596.3 397.828 596.3 397.828Z" fill="white"/>
<path id="Path_25" opacity="0.39" d="M606.352 592.827L602.774 676.616L593.721 627.774L596.879 593.038L606.352 592.827Z" fill="#1B1B1D"/>
<path id="Path_26" opacity="0.39" d="M590.142 539.354C590.142 539.354 546.353 572.196 521.932 576.827L521.089 556.196C521.089 556.196 551.405 557.248 590.142 539.354Z" fill="#1B1B1D"/>
<path id="Path_27" opacity="0.39" d="M634.984 449.038C634.984 449.038 641.721 459.354 643.616 467.985C645.511 476.616 651.405 498.933 651.616 506.301L666.352 512.617C666.352 512.617 652.247 461.669 634.984 449.038Z" fill="#1B1B1D"/>
</g>
<g id="Table">
<path id="Path_28" d="M416.371 915.172L412.345 915.19C410.505 915.199 409.037 912.274 409.051 908.632L410.175 619.257L424.769 619.189L419.791 908.606C419.728 912.239 418.205 915.163 416.371 915.172Z" fill="#FCAA71"/>
<path id="Path_29" d="M506.37 914.264L502.345 914.283C500.505 914.291 499.036 911.367 499.045 907.724L500.17 618.349L514.764 618.281L509.79 907.7C509.728 911.332 508.205 914.255 506.37 914.264Z" fill="#FCAA71"/>
<path id="Path_30" d="M894.752 912.506L890.726 912.525C888.887 912.533 887.418 909.596 887.433 905.936L888.566 615.261L903.16 615.192L898.172 905.911C898.11 909.56 896.587 912.5 894.752 912.506Z" fill="#FCAA71"/>
<path id="Path_31" d="M984.752 911.569L980.726 911.588C978.887 911.597 977.418 908.677 977.432 905.041L978.553 616.192L993.147 616.124L988.172 905.016C988.109 908.643 986.586 911.561 984.752 911.569Z" fill="#FCAA71"/>
<rect id="Rectangle_6" x="377.989" y="610.142" width="650.443" height="32.564" fill="#DCDCF1"/>
<rect id="Rectangle_7" x="377.989" y="610.142" width="174.634" height="32.564" fill="#AFAFD5"/>
<rect id="Rectangle_8" x="410.988" y="857.431" width="97.263" height="12.489" rx="6.2445" fill="#FCAA71"/>
<rect id="Rectangle_9" x="885.934" y="862.427" width="97.263" height="12.489" rx="6.2445" fill="#FCAA71"/>
<path id="Path_32" d="M424.04 642.615L410.566 670.091L410.145 642.615H424.04Z" fill="#DC905E"/>
<path id="Path_33" d="M513.303 642.615L499.829 666.344V642.615H513.303Z" fill="#DC905E"/>
<path id="Path_34" d="M902.671 642.615L889.092 664.159L888.776 641.99L902.671 642.615Z" fill="#DC905E"/>
<path id="Path_35" d="M992.355 643.239L978.144 666.344V642.927L992.355 643.239Z" fill="#DC905E"/>
</g>
<g id="Stove">
<path id="Path_36" d="M713.149 570.138H976.249V610.875H678.36V604.928C678.36 585.714 693.936 570.138 713.149 570.138Z" fill="#9393BE"/>
<rect id="Rectangle_10" x="751.746" y="570.138" width="224.504" height="40.737" fill="#AFAFD5"/>
<g id="Group_2">
<g id="Group_3">
<path id="Path_37" d="M845.829 504.349H947.513V524.17C947.513 545.314 930.373 562.454 909.229 562.454H884.113C862.969 562.454 845.829 545.314 845.829 524.17V504.349H845.829Z" fill="#9393BE"/>
<rect id="Rectangle_11" x="839.934" y="498.665" width="111.579" height="5.895" fill="#AFAFD5"/>
<path id="Path_38" d="M854.881 569.612L865.618 545.823L871.934 550.033L873.197 569.612H854.881Z" fill="#AFAFD5"/>
<path id="Path_39" d="M934.671 569.823L921.959 546.033L914.482 550.244L912.986 569.823H934.671Z" fill="#AFAFD5"/>
</g>
<path id="Path_40" d="M873.197 569.612L872.304 569.07L858.46 560.665L854.881 569.612" fill="#9393BE"/>
<path id="Path_41" d="M912.934 568.875L929.986 560.981L934.092 569.191L912.934 568.875Z" fill="#9393BE"/>
<path id="Path_42" d="M737.197 562.402L751.724 569.823L733.724 569.507L737.197 562.402Z" fill="#9393BE"/>
<path id="Path_43" d="M791.671 570.138L809.197 563.823L812.513 570.138H791.039" fill="#9393BE"/>
</g>
</g>
<g id="Plant">
<g id="Group_4">
<path id="Path_44" d="M1048.72 763.35C1048.72 763.35 1055.67 693.877 1044.3 651.561C1032.94 609.245 978.619 574.508 978.619 574.508C978.619 574.508 1018.41 611.14 1029.78 659.14C1041.14 707.14 1037.99 765.876 1037.99 765.876L1048.72 763.35Z" fill="#5CC2AD"/>
<path id="Path_45" d="M1048.72 766.508C1048.72 766.508 1044.93 647.14 1079.04 614.298C1079.04 614.298 1061.35 669.245 1059.46 711.561C1057.57 753.877 1056.93 768.403 1056.93 768.403L1048.72 766.508Z" fill="#1A7A83"/>
<path id="Path_46" d="M1063.88 767.771C1063.88 767.771 1054.41 700.824 1089.14 663.561C1089.14 663.561 1061.35 690.719 1054.41 727.35C1047.46 763.981 1049.35 770.929 1049.35 770.929L1063.88 767.771Z" fill="#5CC2AD"/>
<path id="Path_47" d="M1043.04 769.666C1043.04 769.666 1046.83 729.877 1028.51 692.613C1010.2 655.349 975.461 652.192 975.461 652.192C975.461 652.192 1016.51 674.298 1022.83 707.14C1026.64 726.924 1028.75 746.997 1029.14 767.14L1043.04 769.666Z" fill="#1A7A83"/>
<path id="Path_48" d="M1070.2 770.3C1070.2 770.3 1068.31 744.405 1093.57 722.931C1093.57 722.931 1075.88 726.089 1068.94 736.826C1061.99 747.563 1056.94 768.405 1056.94 768.405L1070.2 770.3Z" fill="#1A7A83"/>
<path id="Path_49" d="M1037.99 765.876C1037.99 765.876 1029.78 722.298 1007.04 720.403C1007.04 720.403 1018.41 734.929 1020.93 747.561C1022.54 756.526 1023.39 765.611 1023.46 774.719L1037.99 765.876Z" fill="#5CC2AD"/>
</g>
<g id="Group_5">
<path id="Path_50" d="M1084.1 774.091V875.771C1084.04 895.976 1067.68 912.341 1047.47 912.401C1043.52 912.404 1039.59 911.762 1035.85 910.501C1020.94 905.472 1010.88 891.509 1010.83 875.771V774.091C1010.85 767.472 1016.21 762.11 1022.83 762.091H1072.1C1078.72 762.11 1084.08 767.472 1084.1 774.091Z" fill="#AFAFD5"/>
<path id="Path_51" d="M1064.2 773.141V874.821C1064.15 891.843 1052.42 906.603 1035.85 910.501C1020.94 905.472 1010.88 891.509 1010.83 875.771V774.091C1010.85 767.472 1016.21 762.11 1022.83 762.091H1056.86C1061.3 763.972 1064.19 768.32 1064.2 773.141Z" fill="#DCDCF1"/>
</g>
</g>
<g id="Pan 2">
<path id="Path_52" d="M409.83 552.56H511.514V572.38C511.514 593.524 494.374 610.664 473.23 610.664H448.114C426.97 610.664 409.83 593.524 409.83 572.38V552.56Z" fill="#9393BE"/>
<rect id="Rectangle_12" x="403.935" y="546.876" width="111.579" height="5.895" fill="#AFAFD5"/>
</g>
<g id="Pan 1">
<path id="Path_53" d="M533.2 551.3H634.882V571.121C634.879 592.262 617.741 609.399 596.6 609.4H571.482C550.34 609.399 533.201 592.26 533.2 571.117V551.3Z" fill="#9393BE"/>
<rect id="Rectangle_13" x="527.303" y="545.612" width="111.579" height="5.895" fill="#AFAFD5"/>
</g>
<g id="Screen 1">
<path id="Path_54" d="M910.144 219.171V412.061C910.144 419.111 905.875 424.881 900.656 424.881H665.956C660.738 424.881 656.468 419.111 656.468 412.061V219.171C656.468 212.121 660.738 206.351 665.956 206.351H900.656C905.875 206.351 910.144 212.121 910.144 219.171Z" fill="#AFAFD5"/>
<rect id="Rectangle_14" x="678.04" y="364.77" width="74.842" height="5.684" rx="2.842" fill="#DCDCF1"/>
<rect id="Rectangle_15" opacity="0.4" x="679.934" y="341.086" width="196.871" height="5.684" rx="2.842" fill="#DCDCF1"/>
<rect id="Rectangle_16" x="679.934" y="341.068" width="152.73" height="5.702" rx="2.842" fill="#DCDCF1"/>
<rect id="Rectangle_17" x="678.04" y="226.455" width="74.842" height="5.684" rx="2.842" fill="#DCDCF1"/>
<rect id="Rectangle_18" x="856.543" y="227.402" width="39.391" height="5.684" rx="2.842" fill="#DCDCF1"/>
<rect id="Rectangle_19" x="678.04" y="383.086" width="44.739" height="5.684" rx="2.842" fill="#DCDCF1"/>
<rect id="Rectangle_20" x="677.408" y="400.77" width="21.502" height="5.684" rx="2.842" fill="#DCDCF1"/>
<path id="Path_55" d="M762.9 274.412L763.258 303.381C763.286 305.685 764.542 307.798 766.552 308.924C768.562 310.05 771.021 310.017 773 308.838L798.214 293.817C800.202 292.632 801.403 290.472 801.359 288.158C801.314 285.844 800.032 283.731 798 282.623L772.429 268.675C770.42 267.579 767.98 267.631 766.02 268.812C764.059 269.992 762.872 272.124 762.9 274.412Z" fill="white"/>
<rect id="Rectangle_21" opacity="0.55" x="782.339" y="366.665" width="40.591" height="37.895" rx="12" fill="#DCDCF1"/>
<rect id="Rectangle_22" opacity="0.55" x="836.312" y="364.938" width="40.591" height="37.895" rx="12" fill="#DCDCF1"/>
</g>
<g id="Screen 2">
<path id="Path_56" d="M1119.93 277.53V414.07C1119.93 419.06 1116.91 423.145 1113.21 423.145H947.073C943.379 423.145 940.357 419.06 940.357 414.07V277.53C940.357 272.539 943.379 268.455 947.073 268.455H1113.21C1116.91 268.455 1119.93 272.539 1119.93 277.53Z" fill="#AFAFD5"/>
<rect id="Rectangle_23" x="955.63" y="380.594" width="52.978" height="4.024" rx="2.012" fill="#DCDCF1"/>
<rect id="Rectangle_24" x="955.63" y="282.686" width="52.978" height="4.024" rx="2.012" fill="#DCDCF1"/>
<rect id="Rectangle_25" x="1081.99" y="283.356" width="27.884" height="4.024" rx="2.012" fill="#DCDCF1"/>
<rect id="Rectangle_26" x="955.63" y="393.559" width="31.669" height="4.024" rx="2.012" fill="#DCDCF1"/>
<rect id="Rectangle_27" x="955.183" y="406.077" width="15.22" height="4.024" rx="2.012" fill="#DCDCF1"/>
<path id="Path_57" d="M1015.7 316.633L1015.95 337.139C1015.97 338.771 1016.86 340.267 1018.29 341.065C1019.71 341.862 1021.45 341.838 1022.85 341.002L1040.7 330.369C1042.11 329.53 1042.96 328.001 1042.93 326.363C1042.9 324.725 1041.99 323.229 1040.55 322.445L1022.45 312.572C1021.03 311.794 1019.3 311.83 1017.91 312.666C1016.52 313.502 1015.68 315.012 1015.7 316.633Z" fill="white"/>
<rect id="Rectangle_28" opacity="0.55" x="1029.46" y="381.935" width="28.733" height="26.824" rx="12" fill="#DCDCF1"/>
<rect id="Rectangle_29" opacity="0.55" x="1067.67" y="380.713" width="28.733" height="26.824" rx="12" fill="#DCDCF1"/>
</g>
<g id="Screen 3">
<path id="Path_58" d="M421.076 415.478V507.107C421.076 510.456 419.048 513.197 416.569 513.197H305.076C302.597 513.197 300.569 510.456 300.569 507.107V415.478C300.569 412.129 302.597 409.388 305.076 409.388H416.569C419.048 409.388 421.076 412.129 421.076 415.478Z" fill="#EA7E7B"/>
<rect id="Rectangle_30" x="310.818" y="484.643" width="35.553" height="2.7" rx="1.039" fill="#DCDCF1"/>
<rect id="Rectangle_31" x="310.818" y="418.938" width="35.553" height="2.7" rx="1.039" fill="#DCDCF1"/>
<rect id="Rectangle_32" x="395.614" y="419.388" width="18.712" height="2.7" rx="1.039" fill="#DCDCF1"/>
<rect id="Rectangle_33" x="310.818" y="493.343" width="21.253" height="2.7" rx="1.039" fill="#DCDCF1"/>
<rect id="Rectangle_34" x="310.518" y="501.744" width="10.214" height="2.7" rx="1.039" fill="#DCDCF1"/>
<path id="Path_59" d="M351.128 441.719L351.298 455.48C351.312 456.574 351.908 457.578 352.863 458.113C353.818 458.648 354.986 458.633 355.926 458.073L367.903 450.937C368.848 450.374 369.418 449.348 369.397 448.249C369.377 447.15 368.768 446.146 367.803 445.619L355.655 438.994C354.701 438.473 353.542 438.498 352.61 439.058C351.679 439.619 351.115 440.632 351.128 441.719Z" fill="white"/>
<rect id="Rectangle_35" opacity="0.55" x="360.364" y="485.543" width="19.282" height="18.001" rx="6.928" fill="#DCDCF1"/>
<rect id="Rectangle_36" opacity="0.55" x="386.003" y="484.722" width="19.282" height="18.001" rx="6.928" fill="#DCDCF1"/>
</g>
<g id="Screen 4">
<path id="Path_60" d="M1208.02 498.846V590.476C1208.02 593.825 1205.99 596.566 1203.51 596.566H1092.02C1089.54 596.566 1087.51 593.825 1087.51 590.476V498.846C1087.51 495.497 1089.54 492.756 1092.02 492.756H1203.51C1205.99 492.756 1208.02 495.5 1208.02 498.846Z" fill="#5F2882"/>
<rect id="Rectangle_37" x="1097.76" y="568.011" width="35.553" height="2.7" rx="1.039" fill="#DCDCF1"/>
<rect id="Rectangle_38" x="1097.76" y="502.306" width="35.553" height="2.7" rx="1.039" fill="#DCDCF1"/>
<rect id="Rectangle_39" x="1182.56" y="502.756" width="18.712" height="2.7" rx="1.039" fill="#DCDCF1"/>
<rect id="Rectangle_40" x="1097.76" y="576.711" width="21.253" height="2.7" rx="1.039" fill="#DCDCF1"/>
<rect id="Rectangle_41" x="1097.46" y="585.112" width="10.214" height="2.7" rx="1.039" fill="#DCDCF1"/>
<path id="Path_61" d="M1138.07 525.087L1138.24 538.848C1138.26 539.942 1138.85 540.946 1139.81 541.481C1140.76 542.016 1141.93 542.001 1142.87 541.441L1154.85 534.305C1155.79 533.742 1156.36 532.717 1156.34 531.617C1156.32 530.518 1155.71 529.515 1154.75 528.988L1142.6 522.362C1141.65 521.841 1140.49 521.865 1139.56 522.426C1138.63 522.987 1138.06 524 1138.07 525.087Z" fill="white"/>
<rect id="Rectangle_42" opacity="0.55" x="1147.31" y="568.911" width="19.282" height="18.001" rx="6.928" fill="#DCDCF1"/>
<rect id="Rectangle_43" opacity="0.55" x="1172.95" y="568.09" width="19.282" height="18.001" rx="6.928" fill="#DCDCF1"/>
</g>
</g>
</svg>
